<?xml version="1.0" encoding="utf-8"?>
<!-- Generator: Adobe Illustrator 25.4.1, SVG Export Plug-In . SVG Version: 6.00 Build 0)  -->
<svg version="1.1" id="Layer_1" xmlns="http://www.w3.org/2000/svg" xmlns:xlink="http://www.w3.org/1999/xlink" x="0px" y="0px"
	 viewBox="0 0 1000 815.8" style="enable-background:new 0 0 1000 815.8;" xml:space="preserve">
<style type="text/css">
	.st0{fill:url(#SVGID_1_);}
	.st1{fill:#003399;}
</style>
<g>
	
		<linearGradient id="SVGID_1_" gradientUnits="userSpaceOnUse" x1="171.425" y1="394.9684" x2="823.7389" y2="394.9684" gradientTransform="matrix(1 0 0 1 0 -78)">
		<stop  offset="0" style="stop-color:#0071BC"/>
		<stop  offset="1" style="stop-color:#29ABE2"/>
	</linearGradient>
	<path class="st0" d="M512,602.2c-3.8-4.5-2.4-9-2.4-13.1c0-104.7,0.7-209.4-0.5-314.1c-0.6-28.5,5.5-56.8,17.7-82.6
		c18.4-39.2,38-77.7,66-111.1c19.9-23.7,41.3-46,66.6-64.2c3.4-2.4,6.9-7,11.4-4.9s2.8,7.8,2.8,11.9c0.3,88.4,0.3,176.9,0.8,265.4
		c0.2,33.3,1,66.6,1.9,99.9c0.2,8.3-2.6,13.8-9.1,19.2c-36.7,30.3-73,61-102.3,99.1c-19.7,25.6-36.6,52.7-47.3,83.4
		C516.5,594.7,516,598.8,512,602.2z M485.6,589.6c0-114.6,0-229.3,0-343.9c0.1-6.4-1.1-12.7-3.4-18.7
		c-17.4-44.8-37.5-88.3-65.8-127.5c-22.5-31.3-49.5-59-80.2-82.3c-3.3-2.5-7-7-11.4-5c-5.1,2.4-3.2,8.4-3.2,13
		c-0.2,20.6-0.2,41.3-0.3,61.9c-0.5,99.9,0.6,199.9-2.2,299.8c-0.2,6.6-1.1,13.3,5.3,18.6c16.8,13.9,33.4,28,49.6,42.5
		c43.2,38.9,80.3,82.2,101.6,137.3c1.9,5,2.3,10.9,7.4,15.2C486.6,596.8,485.6,593.1,485.6,589.6L485.6,589.6z M450.4,596.8
		c-1.1-3-2.2-5.9-3.5-8.9c-17.1-40.1-43.2-73.6-74.1-103.9c-23.4-22.6-48-43.9-73.8-63.6c-6-4.7-8.2-9.8-8.2-17.2
		c0.1-30.5,1-61,1.6-91.6c1.1-56.3,0.6-112.7,0.7-169c0.1-42.7,0.1-42.7-37.9-62.5c-0.7-0.4-1.4-0.7-2.1-1.2
		c-6.4-4.1-8.9-2.9-8.8,5.2c0.2,127.7,0.3,255.5,0.2,383.2c0,9.3,3.5,13.6,12.1,15.8c7.3,1.9,14.4,4.4,21.3,7.3
		c50.7,20.6,96.6,49.3,138.7,84.1c10.6,8.8,21.4,17.3,33.7,27.2C450.4,598.4,450.7,597.5,450.4,596.8L450.4,596.8z M552.1,596.7
		c18.4-16.3,37.7-31.6,57.7-45.9c39.3-28,80.6-52,126.7-66.8c10.1-3.3,14.4-8.4,14.3-19.6c-0.5-59.5-0.3-119-0.2-178.5
		c0-66.7,0-133.3,0.3-200c0-8.3-1.1-11.5-9.6-6.4c-9.9,5.9-20,11.4-30.2,16.7c-7.3,3.8-9.3,9.1-9.3,17.3
		c1.1,94.4,1.6,188.8,2.9,283.2c0.2,13-4.2,20.9-14.2,28.7c-38.8,30.3-76.2,62.2-106.2,101.8c-16.7,22.1-30.6,45.9-37.8,73.5
		C548.3,599.4,550.3,598.1,552.1,596.7L552.1,596.7z M417.1,609.8C361.6,564,303,523.9,232.6,504.3c-12.4-3.5-16.3-10.2-16.2-23.1
		c0.5-99.6,0.3-199.2,0.3-298.8c0-33.8,0-33.8-33.3-38.6c-0.4,0-0.8-0.2-1.2-0.2c-6.3-1.2-9.9,0.7-9.9,7.9c0,10.7-0.8,21.4-0.8,32.1
		c-0.1,91.7-0.1,183.3,0,275c0,26.6,0.2,53.2,0,79.8c-0.1,9.7,3.5,14.1,13.8,14.9c15.8,1.2,31.5,3.3,47.1,6.2
		c60.8,11.3,118.7,31.5,175.5,55.6c5.7,2.4,11.4,4.6,18.1,7.2C425.2,614.9,420.6,612.6,417.1,609.8L417.1,609.8z M641.9,593.6
		c52.1-19.7,105.7-33.9,161.1-40.3c19-2.2,18.9-1.9,19.1-21c1-124.9-2-249.8,1.6-374.6c0.4-13.8-2.1-15.8-16-13
		c-4.7,0.9-9.3,2.4-14,2.8c-11.8,1.1-15.4,7.1-15.4,18.9c0.4,104.3,0.3,208.6,0.3,312.9c0,19.5,0.2,20-18.8,25.6
		c-58.8,17.3-110,48.6-157.9,85.7c-11.4,8.9-23.6,17.1-31.6,30.7C594.1,612.1,618,602.7,641.9,593.6L641.9,593.6z"/>
	<path class="st1" d="M126.3,743.4c4.7,6,7.2,13.4,7.2,21c0,11.3-4,20.3-11.9,27c-7.9,6.6-19,9.9-33.1,9.9H25.3V665.6h61
		c13.8,0,24.6,3.2,32.4,9.5s11.7,14.9,11.7,25.7c0.3,7.2-1.9,14.2-6.2,19.9c-4.3,5.3-10.1,9.2-16.7,11
		C115,733.2,121.7,737.3,126.3,743.4z M58.3,720.5H80c5.4,0,9.6-1.2,12.4-3.6c2.9-2.4,4.4-5.9,4.4-10.5c0.3-4-1.4-7.9-4.4-10.6
		c-2.9-2.4-7.1-3.7-12.4-3.7H58.3V720.5z M95.5,770.8c3.1-2.7,4.8-6.7,4.5-10.9c0.2-4.3-1.5-8.4-4.7-11.2c-3.1-2.7-7.5-4.1-13-4.1
		h-24v29.9h24.3C88.2,774.6,92.5,773.3,95.5,770.8L95.5,770.8z"/>
	<path class="st1" d="M173.2,796c-8.3-4.4-15.2-11.1-19.8-19.3c-9.7-18.4-9.7-40.3,0.1-58.6c4.7-8.3,11.7-15,20.1-19.4
		c18-9,39.2-9,57.2,0c8.4,4.4,15.4,11.2,20.1,19.4c5,8.9,7.5,19,7.3,29.3c0.2,10.3-2.4,20.4-7.4,29.3c-4.8,8.3-11.8,15-20.3,19.4
		c-8.9,4.6-18.7,6.9-28.7,6.8C191.8,803,182,800.6,173.2,796z M217.8,767.3c4.4-4.6,6.7-11.3,6.7-19.9c0-8.6-2.2-15.2-6.5-19.8
		c-8.3-8.9-22.2-9.3-31-1c-0.3,0.3-0.6,0.6-0.9,0.9c-4.3,4.6-6.4,11.2-6.4,20s2.1,15.4,6.2,19.9c4,4.5,9.8,7,15.8,6.8
		C207.8,774.2,213.7,771.7,217.8,767.3z"/>
	<path class="st1" d="M296.3,796c-8.3-4.4-15.3-11.1-19.9-19.3c-5-9-7.5-19.1-7.2-29.4c-0.2-10.2,2.3-20.3,7.4-29.3
		c4.7-8.3,11.7-15,20.1-19.4c18-9,39.2-9,57.2,0c8.4,4.4,15.4,11.2,20.1,19.4c9.8,18.3,9.8,40.3-0.1,58.5
		c-4.8,8.3-11.8,15-20.2,19.4c-8.9,4.6-18.7,6.9-28.7,6.8C314.9,803,305.1,800.7,296.3,796z M340.9,767.3c4.4-4.6,6.7-11.3,6.7-19.9
		c0-8.6-2.2-15.2-6.5-19.8c-8.3-8.9-22.2-9.3-31-1c-0.3,0.3-0.6,0.6-0.9,0.9c-4.2,4.6-6.4,11.2-6.4,20s2.1,15.4,6.2,19.9
		c4,4.5,9.8,7,15.8,6.8C330.9,774.2,336.7,771.7,340.9,767.3z"/>
	<path class="st1" d="M464.6,801.3l-32.8-45.2v45.2h-33v-143h33v79l32.6-43.9h40.8l-44.8,54.1l45.2,53.7L464.6,801.3z"/>
	<path class="st1" d="M542,782.1h62.4v19.2h-88.5v-17.2l62.2-97.9h-62.2V667h88.5v17.2L542,782.1z"/>
	<path class="st1" d="M647.4,796.1c-8.1-4.5-14.7-11.2-19.1-19.3c-4.8-8.9-7.2-18.8-6.9-28.9c-0.2-10.1,2.3-20,7.1-28.8
		c4.5-8.2,11.3-14.9,19.5-19.3c17.3-9,37.9-9,55.3,0c8.2,4.5,15,11.2,19.5,19.3c4.9,8.8,7.3,18.7,7.2,28.8c0.2,10.1-2.4,20-7.4,28.8
		c-4.7,8.2-11.6,14.9-20,19.4c-8.6,4.6-18.2,7-28,6.9C665.1,803.1,655.7,800.7,647.4,796.1z M690.6,779.8c5.1-2.8,9.3-7.1,12.1-12.2
		c3.3-6,4.9-12.8,4.7-19.7c0.2-6.8-1.3-13.6-4.4-19.6c-2.7-5.1-6.8-9.3-11.8-12.1c-4.8-2.7-10.3-4.1-15.9-4.1
		c-5.5,0-10.9,1.4-15.7,4.1c-4.9,2.8-8.9,7-11.5,12.1c-3,6.1-4.5,12.8-4.3,19.6c0,11.5,2.9,20.3,8.8,26.6c5.7,6.2,13.7,9.6,22.1,9.3
		C680.2,783.9,685.7,782.5,690.6,779.8L690.6,779.8z"/>
	<path class="st1" d="M828,698.3c6.6,3.5,12,8.8,15.5,15.5c3.9,7.6,5.8,16.1,5.6,24.7v62.8h-21.8v-59.5c0-9.5-2.4-16.8-7.2-21.9
		s-11.3-7.6-19.5-7.6c-8.3,0-14.8,2.5-19.6,7.6s-7.2,12.4-7.2,21.9v59.5h-22V694.9h22v12.2c3.7-4.5,8.5-8,13.8-10.2
		c5.6-2.5,11.7-3.7,17.9-3.7C813.3,693,821,694.8,828,698.3z"/>
	<path class="st1" d="M973.9,756.2h-81.3c0.3,7.8,3.7,15.2,9.5,20.5c5.7,5.2,13.2,8,20.9,7.8c11.9,0,20.2-5,25.1-14.9h23.8
		c-3.1,9.7-9.3,18.1-17.5,24c-8.4,6.2-18.9,9.3-31.4,9.3c-9.6,0.2-19-2.2-27.3-6.9c-8-4.5-14.6-11.2-18.9-19.3
		c-4.7-8.9-7.1-18.8-6.9-28.9c-0.2-10,2.1-20,6.7-28.9c4.2-8.1,10.8-14.8,18.7-19.2c8.5-4.6,18-7,27.7-6.8
		c9.4-0.2,18.6,2.1,26.9,6.6c7.8,4.3,14.1,10.7,18.4,18.5c4.5,8.4,6.7,17.8,6.6,27.3C974.7,749,974.5,752.7,973.9,756.2z
		 M951.7,738.4c0.1-7.5-3-14.6-8.7-19.5c-5.9-5-13.4-7.6-21.1-7.3c-7.2-0.2-14.2,2.4-19.5,7.2c-5.5,5.1-9,12.1-9.7,19.6H951.7z"/>
</g>
</svg>
