<svg id="Layer_1" data-name="Layer 1" xmlns="http://www.w3.org/2000/svg" xmlns:xlink="http://www.w3.org/1999/xlink" viewBox="0 0 1643.7 327.21"><defs><style>.cls-1{fill:url(#linear-gradient);}.cls-2{fill:#039;}</style><linearGradient id="linear-gradient" x1="30.84" y1="553.07" x2="341.62" y2="553.07" gradientTransform="matrix(1, 0, 0, -1, 0, 716.67)" gradientUnits="userSpaceOnUse"><stop offset="0" stop-color="#0071bc"/><stop offset="1" stop-color="#29abe2"/></linearGradient></defs><path class="cls-1" d="M193.1,299.49c-1.81-2.15-1.15-4.29-1.15-6.24,0-49.88.34-99.77-.23-149.65a87.75,87.75,0,0,1,8.43-39.35c8.77-18.67,18.1-37,31.44-52.93,9.48-11.29,19.68-21.91,31.73-30.59,1.62-1.14,3.29-3.33,5.43-2.33s1.34,3.72,1.34,5.67c.14,42.11.14,84.28.38,126.44.09,15.87.48,31.73.9,47.6.1,3.95-1.23,6.57-4.33,9.14-17.49,14.44-34.78,29.06-48.74,47.22-9.38,12.19-17.44,25.1-22.53,39.73C195.24,295.91,195,297.87,193.1,299.49Zm-12.58-6V129.64a23.68,23.68,0,0,0-1.62-8.91C170.61,99.39,161,78.67,147.55,60a184,184,0,0,0-38.21-39.21c-1.57-1.19-3.33-3.33-5.43-2.38-2.43,1.14-1.52,4-1.52,6.19-.1,9.82-.1,19.68-.15,29.49-.23,47.6.29,95.24-1,142.83-.1,3.15-.53,6.34,2.52,8.87,8,6.62,15.91,13.34,23.63,20.24,20.58,18.54,38.26,39.17,48.41,65.42.9,2.38,1.09,5.19,3.52,7.24,1.72-1.77,1.24-3.53,1.24-5.2Zm-16.77,3.43c-.52-1.42-1.05-2.81-1.67-4.24-8.14-19.1-20.58-35.06-35.3-49.5a403.31,403.31,0,0,0-35.16-30.3,9.33,9.33,0,0,1-3.91-8.19c.05-14.53.48-29.06.77-43.64.52-26.82.28-53.69.33-80.52,0-20.34,0-20.34-18.06-29.77a11.48,11.48,0,0,1-1-.57c-3-2-4.24-1.38-4.19,2.47q.15,91.26.1,182.57c0,4.43,1.66,6.48,5.76,7.53a74.48,74.48,0,0,1,10.15,3.47c24.15,9.82,46,23.49,66.08,40.07,5,4.19,10.19,8.24,16,13a9.45,9.45,0,0,0,.05-2.34Zm48.45,0A336.17,336.17,0,0,1,239.69,275c18.73-13.34,38.4-24.77,60.36-31.83,4.82-1.57,6.86-4,6.82-9.33-.24-28.35-.15-56.7-.1-85q0-47.67.14-95.29c0-3.95-.52-5.48-4.57-3-4.72,2.81-9.53,5.43-14.39,8-3.47,1.81-4.43,4.33-4.43,8.24.53,45,.76,90,1.38,134.92.1,6.2-2,10-6.76,13.68-18.49,14.43-36.3,29.63-50.6,48.5-7.95,10.52-14.58,21.86-18,35,.86-.62,1.81-1.24,2.67-1.9Zm-64.31,6.24c-26.45-21.82-54.36-40.93-87.9-50.26-5.91-1.67-7.77-4.86-7.72-11,.24-47.45.14-94.9.14-142.35,0-16.11,0-16.11-15.86-18.39-.19,0-.38-.1-.58-.1-3-.57-4.71.33-4.71,3.77,0,5.09-.38,10.19-.38,15.29q-.07,65.54,0,131c0,12.68.09,25.35,0,38-.05,4.62,1.66,6.72,6.57,7.1a209.38,209.38,0,0,1,22.44,2.95c29,5.39,56.55,15,83.61,26.49,2.72,1.15,5.43,2.19,8.63,3.43-.39-3.52-2.58-4.62-4.24-5.95ZM255,295.39c24.83-9.39,50.36-16.15,76.76-19.2,9.05-1.05,9-.9,9.1-10,.47-59.51-1-119,.76-178.47.19-6.58-1-7.53-7.62-6.19-2.24.42-4.44,1.14-6.67,1.33-5.63.52-7.34,3.38-7.34,9,.19,49.69.14,99.38.14,149.08,0,9.29.1,9.52-9,12.19-28,8.24-52.4,23.16-75.22,40.83-5.43,4.24-11.25,8.15-15.06,14.63,11.34-4.39,22.73-8.86,34.11-13.2Z"/><path class="cls-2" d="M520.87,180a43.76,43.76,0,0,1,9.27,27c0,14.54-5.15,26.12-15.31,34.75s-24.45,12.74-42.6,12.74H390.91V79.9H469.4c17.76,0,31.66,4.11,41.69,12.22s15.06,19.17,15.06,33.07a39.69,39.69,0,0,1-8,25.61A41.92,41.92,0,0,1,496.68,165,40,40,0,0,1,520.87,180Zm-87.5-29.47h27.92c6.95,0,12.36-1.54,16-4.63s5.66-7.59,5.66-13.51a16.77,16.77,0,0,0-5.66-13.64c-3.73-3.09-9.14-4.76-16-4.76H433.37Zm47.87,64.73a16.94,16.94,0,0,0,5.79-14,17.91,17.91,0,0,0-6-14.41c-4-3.48-9.65-5.28-16.73-5.28H433.37V220h31.27c7.21.13,12.74-1.55,16.6-4.76Z"/><path class="cls-2" d="M581.22,247.69a63,63,0,0,1-25.47-24.83,80.23,80.23,0,0,1,.12-75.41,63.57,63.57,0,0,1,25.87-25,82.31,82.31,0,0,1,73.6,0,64.4,64.4,0,0,1,25.87,25,74,74,0,0,1,9.39,37.71,74.05,74.05,0,0,1-9.52,37.7,64.19,64.19,0,0,1-26.12,25,81.51,81.51,0,0,1-73.74-.13Zm57.4-36.93c5.66-5.92,8.62-14.54,8.62-25.6s-2.83-19.56-8.37-25.48A28.12,28.12,0,0,0,599,158.39l-1.16,1.16c-5.53,5.92-8.23,14.41-8.23,25.73s2.7,19.82,8,25.61a26.06,26.06,0,0,0,20.33,8.75A28.38,28.38,0,0,0,638.62,210.76Z"/><path class="cls-2" d="M739.63,247.69A63.43,63.43,0,0,1,714,222.86,73.33,73.33,0,0,1,704.76,185a73.45,73.45,0,0,1,9.52-37.71,63.6,63.6,0,0,1,25.86-25,82.33,82.33,0,0,1,73.61,0,64.31,64.31,0,0,1,25.86,25,79.3,79.3,0,0,1-.12,75.28,64.79,64.79,0,0,1-26,25,78.43,78.43,0,0,1-36.93,8.75A73.41,73.41,0,0,1,739.63,247.69ZM797,210.76c5.66-5.92,8.62-14.54,8.62-25.6s-2.83-19.56-8.36-25.48a28.12,28.12,0,0,0-39.89-1.29l-1.16,1.16C750.82,165.47,748,174,748,185.28s2.71,19.82,8,25.61a26.07,26.07,0,0,0,20.33,8.75A28.58,28.58,0,0,0,797,210.76Z"/><path class="cls-2" d="M956.2,254.51,914,196.35v58.16H871.53V70.5H914V172.16l42-56.49h52.5l-57.65,69.61L1009,254.39Z"/><path class="cls-2" d="M1055.8,229.81h80.29v24.7H1022.21V232.38l80-126h-80V81.7h113.88v22.13Z"/><path class="cls-2" d="M1191.43,247.82A62.46,62.46,0,0,1,1166.85,223,73.46,73.46,0,0,1,1158,185.8a74.23,74.23,0,0,1,9.14-37.06,62.23,62.23,0,0,1,25.09-24.84,77.22,77.22,0,0,1,71.16,0,63.89,63.89,0,0,1,25.09,24.84,74.45,74.45,0,0,1,9.27,37.06,72.06,72.06,0,0,1-9.53,37.06,64.84,64.84,0,0,1-25.73,25,74.7,74.7,0,0,1-36,8.88A70.76,70.76,0,0,1,1191.43,247.82Zm55.59-21a39.78,39.78,0,0,0,15.57-15.7,49.59,49.59,0,0,0,6-25.35,51.75,51.75,0,0,0-5.66-25.22A38.44,38.44,0,0,0,1247.79,145a41.74,41.74,0,0,0-20.46-5.28,41.07,41.07,0,0,0-20.2,5.28,37.48,37.48,0,0,0-14.8,15.57,53.61,53.61,0,0,0-5.54,25.22c0,14.8,3.74,26.12,11.33,34.23a36.75,36.75,0,0,0,28.44,12,41.15,41.15,0,0,0,20.46-5.15Z"/><path class="cls-2" d="M1423.82,122a47.4,47.4,0,0,1,20,19.95,66.17,66.17,0,0,1,7.2,31.78v80.81h-28V178q0-18.33-9.26-28.18c-6.18-6.56-14.54-9.78-25.1-9.78s-19,3.22-25.22,9.78-9.26,16-9.26,28.18v76.56h-28.31V117.6h28.31v15.7a45.78,45.78,0,0,1,17.76-13.13,56.46,56.46,0,0,1,23-4.76A61.2,61.2,0,0,1,1423.82,122Z"/><path class="cls-2" d="M1611.57,196.48H1507a37.72,37.72,0,0,0,12.22,26.38,38.52,38.52,0,0,0,26.9,10c15.31,0,26-6.44,32.3-19.18H1609a61,61,0,0,1-22.52,30.89c-10.8,8-24.32,12-40.4,12a68.28,68.28,0,0,1-35.13-8.88,61.82,61.82,0,0,1-24.32-24.83,76.22,76.22,0,0,1-8.88-37.19,77.8,77.8,0,0,1,8.62-37.19,60.2,60.2,0,0,1,24.06-24.7,71.72,71.72,0,0,1,35.65-8.75,69.29,69.29,0,0,1,34.61,8.49,60.17,60.17,0,0,1,23.68,23.8,72.69,72.69,0,0,1,8.49,35.13A122.07,122.07,0,0,1,1611.57,196.48ZM1583,173.58a32.32,32.32,0,0,0-11.19-25.1,39.58,39.58,0,0,0-27.16-9.39,36,36,0,0,0-25.09,9.26,39.52,39.52,0,0,0-12.48,25.23Z"/></svg>